<?xml version="1.0" standalone="no"?>
<!DOCTYPE svg PUBLIC "-//W3C//DTD SVG 20010904//EN"
 "http://www.w3.org/TR/2001/REC-SVG-20010904/DTD/svg10.dtd">
<svg version="1.0" xmlns="http://www.w3.org/2000/svg"
 width="1120.000000pt" height="1120.000000pt" viewBox="0 0 1120.000000 1120.000000"
 preserveAspectRatio="xMidYMid meet">

<g transform="translate(0.000000,1120.000000) scale(0.100000,-0.100000)"
fill="#000000" stroke="none">
<path d="M5295 8519 c-465 -47 -889 -193 -1285 -440 -220 -138 -372 -262 -571
-467 -377 -387 -637 -846 -763 -1347 -41 -164 -54 -253 -67 -441 -24 -351 21
-775 117 -1103 7 -23 5 -24 -26 -18 -18 4 -58 7 -89 7 -33 0 -51 4 -43 8 10 7
10 15 2 36 -13 35 -13 39 3 31 6 -4 5 -1 -3 7 -9 7 -21 24 -27 38 l-12 25 0
-26 c-1 -14 -7 -26 -13 -26 -7 0 -83 -2 -168 -5 -85 -3 -132 -3 -103 1 75 9
73 17 -4 24 -65 6 -86 3 -178 -23 -152 -43 -326 -190 -393 -331 -71 -150 -92
-235 -92 -372 0 -147 27 -263 91 -396 43 -87 63 -116 127 -180 169 -168 312
-194 802 -147 352 34 392 44 500 126 84 64 131 44 340 -140 211 -186 503 -384
755 -511 236 -119 554 -230 799 -280 291 -58 752 -79 1026 -46 191 23 327 43
370 56 19 5 67 17 105 27 126 31 239 71 396 139 266 117 386 187 519 304 157
138 202 174 282 222 180 108 279 117 1130 102 752 -13 791 -11 802 60 6 37 19
721 20 1059 1 254 2 252 -70 268 -21 5 -214 10 -427 10 -248 0 -395 4 -408 10
-13 8 -19 22 -20 48 -1 32 -4 27 -26 -44 l-25 -80 -84 0 c-57 1 -84 5 -84 13
0 6 9 50 20 97 27 113 56 275 65 359 7 67 20 91 35 67 14 -22 23 177 17 379
-12 439 -114 826 -329 1255 -146 291 -415 638 -665 858 -496 436 -1028 688
-1633 773 -137 19 -581 28 -715 14z m697 -398 c114 -18 382 -78 433 -97 8 -3
21 14 36 46 13 29 25 47 27 42 2 -6 -6 -29 -18 -51 l-20 -41 32 -15 c18 -8 92
-39 163 -70 151 -64 433 -218 455 -247 8 -11 77 -69 155 -128 150 -116 316
-279 407 -400 70 -94 224 -347 233 -383 4 -15 11 -30 16 -33 5 -3 9 -10 9 -16
0 -17 -34 32 -71 102 -38 73 -167 249 -281 385 -90 108 -228 236 -389 363
-470 369 -1134 566 -1767 524 -209 -14 -304 -29 -510 -82 -429 -111 -820 -337
-1142 -660 -266 -266 -461 -569 -584 -907 -74 -202 -117 -414 -136 -656 -24
-312 -4 -533 81 -914 46 -210 30 -210 -31 0 -89 309 -117 712 -74 1062 13 104
65 319 109 451 68 201 241 535 324 623 39 42 76 91 95 129 42 82 246 294 411
427 33 26 62 51 65 54 3 4 68 47 145 96 167 106 323 187 471 245 60 23 111 45
114 49 3 3 14 7 25 8 11 0 90 19 176 42 137 35 280 61 414 75 109 11 495 -3
627 -23z m1261 -388 c-11 -31 -15 -35 -24 -22 -4 8 -3 19 3 26 15 19 28 16 21
-4z m-3273 -24 c0 -14 -17 -10 -23 5 -4 10 -1 13 9 9 7 -3 14 -9 14 -14z m699
-418 c31 -16 78 -45 103 -64 l46 -35 28 30 c16 16 46 38 66 49 35 18 67 19
678 19 705 0 668 3 736 -62 l31 -29 27 24 c15 14 41 31 59 38 17 7 46 23 63
36 39 29 75 29 207 2 206 -42 341 -98 353 -147 4 -12 30 -38 60 -58 92 -61
124 -113 223 -361 182 -456 254 -781 255 -1138 0 -217 -13 -298 -65 -396 -48
-90 -101 -144 -177 -181 -62 -31 -74 -33 -167 -33 -92 0 -105 3 -165 31 -36
18 -93 56 -127 85 -63 55 -231 245 -337 383 -33 43 -72 86 -87 97 -27 19 -28
19 -76 -2 -195 -86 -365 -59 -521 83 l-54 48 -250 0 -251 0 -51 -48 c-67 -63
-127 -97 -206 -118 -81 -21 -182 -15 -265 16 -113 42 -100 48 -216 -97 -240
-299 -347 -409 -437 -451 -51 -24 -69 -27 -167 -27 -100 0 -115 2 -160 26
-105 56 -185 158 -225 288 -12 37 -24 118 -29 192 -23 325 46 698 211 1139
121 323 156 385 259 450 32 21 55 45 64 67 12 28 27 40 87 67 87 41 185 70
293 90 112 20 119 20 184 -13z m3195 -216 c-6 -16 -24 -21 -24 -7 0 11 11 22
21 22 5 0 6 -7 3 -15z m141 -216 c8 -38 0 -48 -15 -19 -7 14 -17 19 -29 15
-14 -4 -17 1 -17 28 1 32 1 33 28 20 16 -9 29 -25 33 -44z m-78 -201 c-3 -8
-6 -5 -6 6 -1 11 2 17 5 13 3 -3 4 -12 1 -19z m322 -318 c14 -1 14 -2 -1 -14
-10 -7 -16 -15 -14 -17 2 -2 6 -26 10 -54 l6 -50 -23 58 c-13 34 -26 55 -32
50 -5 -4 -4 -1 2 8 7 8 10 26 7 40 l-5 24 17 -22 c9 -13 24 -23 33 -23z
m-5268 -23 c-13 -13 -15 1 -4 30 7 17 8 17 11 -1 2 -10 -1 -23 -7 -29z m5116
-37 c7 0 13 -9 13 -20 0 -11 -4 -20 -8 -20 -10 0 -42 66 -41 83 1 7 6 0 12
-15 6 -16 17 -28 24 -28z m-5127 10 c0 -5 -5 -10 -11 -10 -5 0 -7 5 -4 10 3 6
8 10 11 10 2 0 4 -4 4 -10z m5047 -102 c-3 -8 -6 -5 -6 6 -1 11 2 17 5 13 3
-3 4 -12 1 -19z m285 -168 c-1 -3 -10 -5 -20 -6 -16 -1 -17 2 -8 22 10 20 12
21 20 6 6 -9 9 -19 8 -22z m-5395 -2 c-3 -8 -6 -5 -6 6 -1 11 2 17 5 13 3 -3
4 -12 1 -19z m5420 -335 c-2 -16 -4 -5 -4 22 0 28 2 40 4 28 2 -13 2 -35 0
-50z m0 -55 c-3 -8 -6 -5 -6 6 -1 11 2 17 5 13 3 -3 4 -12 1 -19z m0 -235 c-3
-10 -5 -4 -5 12 0 17 2 24 5 18 2 -7 2 -21 0 -30z m6 -165 c8 -5 4 -8 -8 -8
-18 0 -20 5 -16 38 5 36 6 36 9 7 2 -16 9 -33 15 -37z m80 -15 c-7 -2 -21 -2
-30 0 -10 3 -4 5 12 5 17 0 24 -2 18 -5z m-5733 -680 c0 -16 -73 -112 -81
-107 -5 3 -6 -1 -3 -9 3 -8 -3 -20 -12 -28 -15 -12 -17 -12 -9 0 5 9 4 12 -3
7 -6 -4 -9 -13 -6 -20 3 -8 0 -17 -7 -22 -8 -5 -10 -3 -4 7 6 9 2 8 -11 -3
-16 -14 -49 -17 -201 -20 -100 -2 -175 0 -165 4 10 4 12 7 4 7 -27 2 -82 -32
-116 -69 -96 -106 -58 -282 76 -351 31 -16 59 -19 173 -19 l135 0 0 50 0 50
-79 0 c-91 0 -91 -1 -91 112 l0 67 160 3 160 3 -1 -130 c0 -82 -4 -123 -9
-110 -6 13 -9 -16 -9 -82 l-1 -103 -193 0 c-190 0 -289 13 -323 41 -7 6 -18 8
-24 4 -6 -4 -9 -1 -8 6 2 6 -3 14 -11 17 -9 3 -11 0 -6 -9 4 -8 -13 6 -38 30
-25 24 -43 49 -41 56 3 7 0 16 -7 21 -8 5 -10 3 -4 -6 5 -9 4 -11 -4 -6 -6 4
-9 11 -6 16 8 13 -6 41 -18 33 -5 -3 -7 -2 -4 4 3 5 0 29 -7 53 -8 29 -15 39
-20 30 -3 -8 -4 -3 -1 12 3 16 0 28 -7 30 -9 3 -9 22 0 82 22 141 102 250 230
313 61 30 27 28 525 41 37 1 67 -1 67 -5z m1086 -110 c118 -127 228 -253 256
-293 l18 -25 182 187 c157 161 185 185 196 173 7 -9 10 -21 5 -28 -4 -6 -8
-75 -9 -152 0 -77 -1 -224 -2 -327 l-2 -188 -70 0 -70 0 0 170 c0 94 -3 170
-8 170 -4 0 -54 -47 -112 -105 -58 -58 -110 -105 -116 -105 -5 0 -42 30 -80
68 -39 37 -52 51 -29 32 23 -19 7 -2 -34 38 l-76 74 -7 -54 c-3 -29 -6 -106
-7 -170 l-1 -118 -70 0 -70 0 -1 178 c-2 280 -4 346 -11 357 -10 16 -10 235 0
235 5 0 58 -53 118 -117z m662 91 c0 -14 -4 -21 -7 -15 -4 6 -83 -69 -191
-184 -100 -107 -185 -195 -188 -195 -3 0 5 12 19 28 14 15 67 74 119 132 80
89 241 260 246 260 1 0 2 -12 2 -26z m-1247 -66 c23 -46 51 -98 61 -117 11
-18 17 -36 14 -38 -3 -3 -23 30 -45 73 -21 44 -47 88 -56 99 -16 19 34 -79 97
-192 31 -56 49 -74 23 -23 -9 17 -13 30 -10 30 11 0 45 -81 39 -92 -4 -6 -3
-8 3 -5 13 8 26 -20 16 -35 -3 -6 -1 -8 4 -5 6 4 14 0 17 -9 3 -8 2 -12 -4 -9
-13 8 -13 -1 1 -26 5 -11 14 -17 18 -15 9 6 44 -64 36 -72 -3 -3 -5 1 -5 8 0
7 -2 11 -5 8 -10 -9 7 -38 18 -31 6 3 7 1 3 -6 -4 -6 15 -53 43 -107 28 -52
51 -99 51 -104 0 -15 -143 -12 -162 3 -18 14 -102 171 -87 161 8 -5 8 -1 0 14
-6 11 -15 22 -19 24 -11 4 -81 114 -93 146 -11 27 9 52 23 29 5 -8 9 -7 13 5
3 8 -14 63 -39 122 -62 145 -63 151 -35 203 13 23 27 43 30 43 4 0 26 -37 50
-82z m1989 77 c0 -17 -25 -53 -33 -48 -6 3 -7 1 -4 -5 10 -15 -3 -43 -16 -35
-6 3 -7 1 -3 -5 4 -7 -8 -27 -27 -47 l-35 -36 -146 5 -147 4 3 -71 c2 -49 7
-72 16 -73 6 -1 71 -2 142 -3 90 -1 130 -5 130 -12 0 -7 -25 -47 -57 -90 l-56
-79 -84 0 -83 0 0 -60 0 -60 165 0 165 0 0 -70 0 -70 -234 0 -235 0 -5 118
c-14 296 -17 602 -7 602 6 0 11 5 11 10 0 6 -5 9 -11 8 -6 -2 -14 3 -16 10 -4
9 57 12 281 12 157 0 286 -2 286 -5z m775 -3 c-21 -14 -46 -63 -39 -75 4 -7 4
-9 -1 -5 -12 11 -38 -29 -29 -45 4 -6 4 -9 -1 -5 -5 5 -14 -1 -22 -12 -13 -19
-26 -20 -175 -20 -176 0 -230 -10 -246 -45 -15 -32 3 -92 31 -107 20 -10 21
-10 8 6 -13 15 -12 16 13 6 15 -5 79 -9 144 -8 99 2 124 -1 162 -18 25 -12 52
-29 60 -40 14 -18 14 -18 -5 -3 -39 31 -50 32 -21 1 16 -17 33 -30 39 -29 10
2 13 -10 23 -93 11 -103 -31 -185 -120 -233 -38 -21 -57 -22 -273 -25 -188 -3
-233 -1 -232 10 0 7 17 39 37 72 l37 58 186 -1 c169 -2 188 0 209 17 17 14 24
30 24 56 0 64 -15 70 -187 76 -140 5 -155 7 -185 29 -48 34 -94 100 -86 124 4
13 2 17 -5 13 -7 -5 -9 2 -6 21 2 15 7 48 10 73 3 25 14 60 25 78 11 18 17 32
15 32 -3 0 -14 -15 -25 -32 -11 -18 -20 -28 -20 -22 0 5 13 31 29 56 20 32 44
53 82 72 l53 26 250 0 c138 0 246 -4 241 -8z m558 -7 c72 -30 158 -132 143
-170 -3 -8 -1 -15 5 -17 5 -2 5 -31 -2 -78 -6 -41 -11 -83 -12 -92 -1 -9 -4
-15 -8 -12 -4 2 -10 -3 -13 -12 -4 -10 -2 -13 7 -8 6 4 -4 -7 -23 -24 -19 -18
-57 -43 -84 -57 -45 -22 -62 -25 -163 -25 l-112 0 -3 -122 -3 -121 -66 -1 -66
-1 -7 155 c-4 85 -9 176 -13 203 l-6 47 174 0 c132 0 181 4 202 14 19 11 27
12 27 3 1 -22 29 37 30 61 0 31 -25 78 -47 87 -10 4 -83 8 -162 9 -120 2 -146
6 -156 19 -7 9 -15 14 -19 10 -4 -4 -4 0 -1 9 4 9 1 19 -6 24 -8 4 -10 3 -5
-4 4 -7 5 -12 2 -12 -3 0 -10 10 -17 21 -9 17 -8 20 3 14 7 -3 6 -1 -3 7 -8 7
-18 20 -22 28 -4 8 -14 25 -23 38 l-16 22 215 0 c168 0 222 -3 250 -15z m459
-147 l3 -163 133 -3 c131 -3 132 -2 133 20 0 22 1 22 8 3 5 -12 7 4 4 40 -2
33 -6 106 -10 163 l-6 102 87 0 87 0 -5 -287 c-3 -159 -5 -330 -5 -380 l-1
-93 -67 4 -68 5 -3 132 -3 131 -87 -5 c-48 -3 -117 -3 -154 2 l-68 7 0 -133 0
-133 -70 0 -70 0 -1 38 c0 20 -2 48 -4 62 -2 14 -6 166 -11 338 l-7 312 91 0
92 0 2 -162z m1114 116 c-3 -26 -6 -67 -6 -91 l0 -43 -175 2 -175 3 0 -75 0
-75 150 3 c83 3 150 2 150 -2 0 -9 -93 -150 -104 -159 -6 -4 -51 -6 -101 -5
l-90 3 -3 -67 -3 -68 166 0 165 0 0 -68 0 -69 -235 -2 -235 -2 0 141 c0 87 -4
140 -10 140 -6 0 -10 82 -10 225 l0 225 23 5 c12 3 83 6 157 8 l135 3 -158 1
c-87 0 -160 3 -164 7 -3 3 114 6 262 6 l268 0 -7 -46z m543 30 c60 -17 124
-70 150 -123 26 -51 15 -201 -18 -254 -29 -47 -76 -87 -113 -94 -15 -3 -31 -9
-33 -14 -5 -6 38 -66 168 -235 l19 -24 -89 0 -89 0 -50 72 c-52 77 -191 248
-200 248 -4 0 -2 -8 2 -17 5 -10 11 -80 14 -156 l5 -137 -76 0 c-54 0 -76 4
-76 13 0 6 -4 99 -8 205 l-7 192 186 1 c102 1 191 3 196 4 6 1 14 3 19 4 16 2
36 74 22 79 -6 2 -8 8 -5 13 3 6 -1 21 -10 34 -15 23 -17 23 -197 25 -100 0
-186 3 -191 6 -5 3 -8 36 -7 72 0 37 -2 75 -6 85 -7 16 5 17 167 17 129 0 188
-4 227 -16z m798 -57 c2 -39 -1 -79 -6 -87 -8 -12 -38 -14 -165 -11 l-156 2 2
-78 c1 -69 2 -73 8 -33 l7 45 1 -42 2 -43 135 0 c124 0 155 -6 124 -25 -6 -4
-8 -13 -5 -21 3 -8 1 -13 -4 -11 -4 1 -26 -23 -47 -53 l-39 -55 -92 3 -92 4 0
-71 0 -71 160 0 160 0 0 -70 0 -70 -229 0 -230 0 -6 118 c-3 64 -9 235 -13
380 l-7 262 245 0 245 0 2 -73z m-6329 -188 c18 -44 32 -85 32 -90 0 -5 -11
-27 -25 -50 -14 -22 -23 -45 -19 -51 5 -7 3 -8 -6 -3 -10 6 -12 4 -7 -8 3 -9
1 -19 -5 -23 -7 -4 -8 -3 -4 4 4 7 5 12 2 12 -11 0 -47 -71 -40 -81 4 -7 3 -9
-3 -6 -5 3 -34 -38 -65 -91 l-55 -97 -87 -5 c-47 -3 -86 -2 -86 3 0 4 5 7 10
7 15 0 51 63 45 78 -2 7 2 15 11 19 8 3 24 23 35 45 11 22 16 37 10 34 -7 -4
-8 -1 -5 8 3 9 10 14 14 11 4 -3 7 3 6 13 0 9 4 16 11 15 8 -2 10 4 6 14 -4
11 -3 14 5 9 8 -5 10 -1 5 10 -5 13 -3 15 7 9 9 -5 11 -4 6 3 -10 16 22 74 36
66 7 -4 8 -3 4 4 -9 14 73 154 85 146 5 -3 6 3 2 12 -4 12 -3 15 6 10 6 -4 10
-4 9 1 -3 13 13 53 21 53 4 0 22 -36 39 -81z m2189 9 c-3 -8 -6 -5 -6 6 -1 11
2 17 5 13 3 -3 4 -12 1 -19z m-2237 -268 c-6 -11 -13 -20 -16 -20 -2 0 0 9 6
20 6 11 13 20 16 20 2 0 0 -9 -6 -20z m-627 -87 c-13 -2 -35 -2 -50 0 -16 2
-5 4 22 4 28 0 40 -2 28 -4z m2630 0 c-7 -2 -19 -2 -25 0 -7 3 -2 5 12 5 14 0
19 -2 13 -5z m54 1 c-3 -3 -12 -4 -19 -1 -8 3 -5 6 6 6 11 1 17 -2 13 -5z
m1576 -538 c10 -26 -238 -131 -426 -180 -55 -14 -174 -37 -265 -52 -387 -62
-881 -19 -1237 108 -75 26 -225 102 -217 110 5 5 83 -16 175 -47 378 -126 679
-168 1045 -146 266 17 426 47 669 126 81 26 211 75 249 94 1 1 4 -5 7 -13z
m783 -55 c-4 -5 -1 -11 5 -13 16 -5 -73 -79 -201 -167 -58 -40 -103 -73 -100
-75 3 -2 0 -9 -6 -17 -5 -8 -11 -32 -13 -54 -1 -22 -13 -60 -27 -84 -20 -37
-21 -42 -6 -37 13 5 13 3 -3 -10 -44 -34 -398 -194 -430 -194 -3 0 -5 6 -5 14
0 11 -15 13 -72 9 -74 -5 -138 8 -170 35 -16 13 -31 12 -135 -11 -833 -185
-1673 -33 -2358 426 -73 49 -198 148 -193 153 10 10 99 -33 176 -85 379 -253
772 -411 1201 -480 356 -59 796 -45 1141 34 376 87 698 230 1048 466 81 54
148 99 150 99 2 0 1 -4 -2 -9z m-974 -213 c-6 -23 -25 -9 -27 21 -1 15 2 17
15 8 10 -6 15 -18 12 -29z m-1752 6 c0 -2 -9 -18 -20 -36 -20 -33 -25 -30 -11
7 5 11 4 25 -1 32 -7 8 -3 10 11 6 12 -3 21 -7 21 -9z m1700 -14 c-8 -5 -19
-10 -25 -10 -5 0 -3 5 5 10 8 5 20 10 25 10 6 0 3 -5 -5 -10z m-834 -136 c-6
-6 -13 -8 -16 -4 -3 4 -12 10 -20 13 -12 4 -11 6 3 6 9 1 17 6 17 11 0 7 5 6
13 -2 10 -9 11 -15 3 -24z m227 19 c-7 -2 -21 -2 -30 0 -10 3 -4 5 12 5 17 0
24 -2 18 -5z"/>
<path d="M5002 7201 c-60 -10 -97 -49 -95 -99 2 -45 133 -455 166 -521 42 -83
32 -81 522 -81 404 0 432 1 461 19 17 10 40 34 51 52 11 19 57 149 103 289 89
279 91 290 33 327 -25 17 -67 18 -612 19 -323 1 -605 -1 -629 -5z"/>
<path d="M4545 7166 c-313 -65 -478 -137 -539 -235 -60 -94 -215 -524 -266
-736 -73 -299 -100 -636 -66 -805 45 -222 176 -343 352 -327 129 12 192 64
420 347 151 187 217 255 259 266 17 4 55 -4 113 -24 113 -40 145 -44 217 -31
79 15 147 50 213 113 l54 51 283 3 283 3 63 -57 c142 -125 280 -151 444 -83
80 33 119 36 157 11 16 -10 93 -99 172 -198 243 -304 323 -372 462 -395 59
-10 79 -9 125 4 104 31 184 126 220 263 52 199 8 642 -98 994 -47 157 -208
560 -247 618 -40 61 -108 101 -248 146 -121 40 -333 86 -393 86 -55 0 -102
-27 -129 -74 -22 -38 -122 -329 -162 -471 -30 -108 -66 -159 -139 -198 -39
-22 -48 -22 -505 -22 l-465 0 -48 28 c-26 15 -59 46 -73 67 -14 21 -57 139
-96 262 -99 314 -128 372 -204 404 -40 17 -25 18 -159 -10z m2312 -236 c76
-46 89 -151 27 -220 -75 -82 -197 -71 -245 22 -38 73 -15 156 53 198 44 26
122 27 165 0z m-2343 -51 c24 -19 26 -26 26 -94 0 -106 -1 -105 85 -105 97 0
120 -10 135 -56 15 -45 7 -157 -14 -189 -13 -20 -26 -23 -98 -27 -46 -2 -89
-8 -96 -12 -8 -5 -12 -35 -12 -85 0 -106 -11 -116 -129 -116 -66 0 -93 4 -114
18 -25 16 -27 22 -27 88 0 103 -5 109 -94 109 -108 0 -120 12 -124 127 -3 78
-1 91 18 116 20 25 26 27 100 27 55 0 81 4 89 14 8 9 11 43 10 92 -4 103 8
114 131 114 73 0 92 -3 114 -21z m2055 -196 c41 -31 63 -77 63 -132 -1 -99
-58 -155 -150 -148 -64 5 -99 28 -129 87 -28 55 -29 89 -2 141 37 74 151 101
218 52z m558 6 c90 -56 96 -200 10 -263 -38 -28 -126 -28 -164 0 -48 36 -67
70 -67 122 0 123 123 201 221 141z m-297 -271 c80 -41 110 -120 76 -202 -32
-76 -147 -111 -215 -64 -54 37 -76 73 -76 127 0 60 34 113 90 141 51 26 71 25
125 -2z m-1778 -59 c75 -16 120 -41 167 -95 56 -63 89 -137 96 -209 4 -42 2
-54 -4 -40 -5 11 -10 32 -10 47 -1 45 -37 126 -76 173 -45 56 -111 95 -195
117 -74 19 -58 24 22 7z m1248 -16 c122 -43 208 -142 224 -258 5 -36 4 -34
-12 15 -28 83 -47 113 -100 161 -160 143 -388 108 -493 -75 -16 -28 -29 -46
-29 -40 0 5 13 30 29 55 95 148 225 197 381 142z m-1233 -78 c102 -43 153
-122 153 -240 0 -57 -5 -79 -28 -120 -96 -174 -351 -176 -440 -2 -47 90 -40
180 20 272 18 28 32 54 33 59 0 5 16 19 35 31 31 20 45 23 112 19 43 -2 94
-11 115 -19z m1216 -1 c84 -28 161 -124 173 -217 9 -66 -11 -123 -64 -179 -81
-87 -173 -116 -269 -84 -147 49 -216 215 -147 354 29 59 103 129 142 135 61 9
121 6 165 -9z m-1553 -28 c0 -2 -8 -10 -17 -17 -16 -13 -17 -12 -4 4 13 16 21
21 21 13z m984 -54 c3 -5 -16 -47 -43 -93 -59 -103 -76 -109 -121 -47 -30 40
-80 130 -80 143 0 9 238 6 244 -3z m-1844 -392 c29 -222 80 -302 163 -259 39
21 178 144 310 273 122 121 147 142 130 112 -15 -26 -317 -378 -383 -447 -97
-100 -143 -102 -201 -12 -54 86 -63 137 -64 348 0 105 4 217 9 250 l10 60 7
-120 c5 -66 13 -158 19 -205z m2007 278 c-3 -7 -5 -2 -5 12 0 14 2 19 5 13 2
-7 2 -19 0 -25z m1489 -163 c8 -155 -7 -310 -37 -392 -25 -65 -76 -123 -109
-123 -49 0 -72 22 -315 295 -258 290 -273 311 -126 175 164 -152 321 -289 355
-309 57 -36 82 -36 115 -4 16 17 36 53 45 84 20 67 46 276 47 384 1 121 18 50
25 -110z m-2719 123 c-3 -7 -5 -2 -5 12 0 14 2 19 5 13 2 -7 2 -19 0 -25z"/>
<path d="M4340 6763 c0 -114 -24 -138 -149 -149 l-72 -7 3 -61 3 -61 80 -6
c69 -6 82 -10 102 -34 19 -21 23 -38 23 -89 0 -35 5 -67 12 -74 7 -7 38 -12
70 -12 l58 0 0 63 c0 39 6 75 18 97 14 29 24 36 62 43 25 4 66 6 92 5 55 -3
58 1 58 71 0 47 -1 48 -37 58 -21 6 -58 11 -83 12 -25 1 -53 4 -63 7 -28 9
-47 65 -47 139 l0 65 -65 0 -65 0 0 -67z"/>
<path d="M2508 4513 c29 -2 74 -2 100 0 26 2 2 3 -53 3 -55 0 -76 -1 -47 -3z"/>
<path d="M2223 4503 c9 -2 25 -2 35 0 9 3 1 5 -18 5 -19 0 -27 -2 -17 -5z"/>
<path d="M1992 4402 c-28 -27 -59 -67 -71 -90 -31 -60 -25 -65 8 -7 16 28 50
71 77 98 27 26 45 47 42 47 -4 0 -29 -22 -56 -48z"/>
<path d="M1871 4124 c0 -11 3 -14 6 -6 3 7 2 16 -1 19 -3 4 -6 -2 -5 -13z"/>
<path d="M1980 3875 c19 -19 36 -35 39 -35 3 0 -10 16 -29 35 -19 19 -36 35
-39 35 -3 0 10 -16 29 -35z"/>
<path d="M3670 4504 c0 -6 189 -210 294 -319 32 -33 48 -46 36 -30 -26 36
-330 357 -330 349z"/>
<path d="M4753 4513 c59 -2 155 -2 215 0 59 1 10 3 -108 3 -118 0 -167 -2
-107 -3z"/>
<path d="M5098 4513 c12 -2 30 -2 40 0 9 3 -1 5 -23 4 -22 0 -30 -2 -17 -4z"/>
<path d="M5455 4504 c-16 -8 -21 -11 -10 -7 11 4 126 10 255 13 l235 6 -225 1
c-180 2 -231 -1 -255 -13z"/>
<path d="M5374 4458 l-19 -23 23 19 c12 11 22 21 22 23 0 8 -8 2 -26 -19z"/>
<path d="M6233 4513 c37 -2 96 -2 130 0 34 2 4 3 -68 3 -71 0 -99 -1 -62 -3z"/>
<path d="M6481 4501 c42 -13 72 -32 113 -70 38 -36 39 -36 16 -4 -24 34 -106
84 -136 82 -14 0 -12 -3 7 -8z"/>
<path d="M7250 4510 c0 -5 5 -10 10 -10 6 0 10 5 10 10 0 6 -4 10 -10 10 -5 0
-10 -4 -10 -10z"/>
<path d="M8368 4513 c34 -2 88 -2 120 0 31 2 3 3 -63 3 -66 0 -92 -1 -57 -3z"/>
<path d="M8598 4503 c7 -3 16 -2 19 1 4 3 -2 6 -13 5 -11 0 -14 -3 -6 -6z"/>
<path d="M8253 4395 c0 -22 2 -30 4 -17 2 12 2 30 0 40 -3 9 -5 -1 -4 -23z"/>
<path d="M8763 4381 c12 -22 23 -38 25 -36 5 5 -26 63 -37 69 -5 4 0 -12 12
-33z"/>
<path d="M9013 4513 c20 -2 54 -2 75 0 20 2 3 4 -38 4 -41 0 -58 -2 -37 -4z"/>
<path d="M9148 4513 c12 -2 30 -2 40 0 9 3 -1 5 -23 4 -22 0 -30 -2 -17 -4z"/>
<path d="M8951 4374 c0 -11 3 -14 6 -6 3 7 2 16 -1 19 -3 4 -6 -2 -5 -13z"/>
<path d="M2998 4238 c-8 -13 -20 -34 -27 -48 -12 -24 -11 -24 4 -5 19 23 48
75 41 75 -2 0 -10 -10 -18 -22z"/>
<path d="M3956 8247 c-248 -156 -415 -286 -597 -467 -341 -339 -562 -682 -734
-1137 -13 -35 -22 -63 -19 -63 2 0 9 11 13 24 11 27 79 45 93 23 6 -9 8 -9 8
1 0 18 18 15 22 -5 2 -10 16 13 32 52 101 242 272 528 452 755 164 207 477
489 726 655 l87 57 -27 34 c-15 19 -30 34 -34 34 -3 0 -5 11 -3 25 1 14 2 25
1 24 0 0 -10 -6 -20 -12z m64 -92 c7 -9 8 -15 2 -15 -5 0 -12 7 -16 15 -3 8
-4 15 -2 15 2 0 9 -7 16 -15z"/>
<path d="M7394 8069 c-2 -4 -15 -5 -29 -4 -14 2 -25 -1 -25 -7 0 -6 -8 -7 -17
-3 -24 9 -12 -2 80 -69 112 -82 299 -249 417 -373 225 -238 388 -470 534 -763
50 -102 99 -204 109 -227 12 -27 23 -40 32 -37 7 3 38 -8 69 -25 30 -17 57
-31 60 -31 15 0 -67 197 -154 375 -112 228 -186 349 -332 543 -118 158 -402
449 -541 557 -83 64 -91 68 -144 69 -30 0 -57 -2 -59 -5z"/>
</g>
</svg>
