<?xml version="1.0" standalone="no"?>
<!DOCTYPE svg PUBLIC "-//W3C//DTD SVG 20010904//EN"
 "http://www.w3.org/TR/2001/REC-SVG-20010904/DTD/svg10.dtd">
<svg version="1.0" xmlns="http://www.w3.org/2000/svg"
 width="1120.000000pt" height="1120.000000pt" viewBox="0 0 1120.000000 1120.000000"
 preserveAspectRatio="xMidYMid meet">

<g transform="translate(0.000000,1120.000000) scale(0.100000,-0.100000)"
fill="#000000" stroke="none">
<path d="M6160 9498 c0 -6 16 -39 35 -74 19 -34 35 -65 35 -69 0 -4 -15 -4
-32 -1 -18 4 -116 16 -218 26 -321 34 -727 23 -938 -26 -74 -16 -100 -18 -87
-5 20 19 369 85 565 106 56 7 62 9 40 17 -27 11 -597 3 -637 -8 -14 -4 -23 -2
-23 5 0 18 -27 14 -245 -40 -188 -46 -358 -74 -377 -63 -21 13 -393 -156 -583
-266 -347 -200 -717 -491 -958 -755 -279 -306 -492 -619 -653 -962 -47 -99
-56 -113 -78 -113 -27 0 -28 -2 -46 -122 -6 -37 -14 -78 -19 -92 -15 -37 -241
-263 -781 -775 -476 -453 -472 -448 -450 -532 10 -35 36 -66 163 -188 83 -80
297 -288 475 -461 178 -173 345 -329 372 -347 26 -17 176 -159 335 -315 158
-156 302 -291 320 -300 21 -11 69 -20 132 -24 58 -4 115 -14 140 -24 23 -10
85 -60 140 -112 54 -52 110 -101 123 -108 17 -9 76 -15 175 -18 83 -2 158 -9
168 -14 13 -7 17 -18 15 -41 l-3 -32 -190 0 c-222 0 -216 -2 -345 120 -117
110 -119 111 -245 119 -72 5 -124 14 -150 26 -47 21 -111 78 -376 330 -257
244 -328 318 -335 345 -3 13 -14 27 -24 31 -11 5 -99 88 -197 184 -377 371
-482 467 -516 475 -26 5 -28 8 -14 14 15 5 -4 28 -106 126 -68 66 -132 136
-143 155 -11 21 -18 56 -18 90 -1 77 29 124 156 245 345 330 644 619 858 832
l245 243 40 117 c74 217 243 532 417 780 128 181 261 342 442 534 39 41 89 95
112 120 22 24 73 73 114 109 40 36 88 80 108 98 19 17 38 32 41 32 4 0 15 14
24 30 10 17 24 30 32 30 7 0 17 9 20 20 4 11 10 18 15 15 9 -5 53 45 46 52 -6
7 -39 -12 -156 -90 -239 -159 -520 -414 -701 -637 -165 -203 -335 -449 -404
-585 -23 -44 -49 -93 -59 -108 -10 -15 -16 -30 -13 -33 2 -3 -6 -16 -18 -28
-13 -13 -29 -43 -35 -67 -7 -24 -21 -61 -31 -82 -11 -21 -17 -42 -14 -46 2 -5
-1 -11 -8 -14 -7 -3 -30 -45 -51 -95 -20 -49 -51 -109 -69 -134 -55 -76 -207
-244 -233 -258 -13 -8 -23 -18 -21 -24 2 -6 -6 -15 -19 -21 -33 -15 -228 -193
-389 -355 -87 -88 -158 -151 -188 -166 -26 -14 -45 -29 -42 -34 3 -5 -60 -9
-149 -9 -119 1 -156 4 -160 14 -2 7 -19 16 -36 20 -37 8 -110 74 -110 100 0
16 10 17 135 13 73 -2 132 -1 129 4 -3 4 6 4 19 -1 34 -13 71 7 75 42 6 55
-48 77 -88 37 -11 -11 -20 -16 -20 -11 0 5 12 19 26 30 41 33 12 25 -52 -14
-69 -42 -121 -46 -174 -14 -19 12 -75 58 -125 102 -139 125 -147 129 -50 27
97 -102 52 -63 -131 113 -56 53 -104 97 -108 97 -3 0 -6 -15 -6 -34 0 -30 5
-36 47 -57 43 -22 113 -96 113 -120 0 -5 -12 -9 -27 -9 l-27 0 33 -34 c19 -19
30 -39 26 -46 -8 -13 197 -225 254 -264 28 -18 55 -25 117 -29 92 -7 134 -20
134 -42 0 -22 -43 -30 -165 -30 -134 0 -155 9 -263 109 -142 131 -228 200
-207 166 9 -14 -8 -13 -23 2 -9 9 -12 4 -12 -25 0 -34 4 -39 48 -61 26 -13 96
-69 155 -125 60 -56 117 -106 129 -112 11 -6 61 -15 112 -19 137 -13 146 -20
105 -87 -12 -18 -29 -66 -38 -106 -29 -118 -74 -123 -196 -20 -33 28 -87 77
-120 108 -108 104 -184 164 -160 125 9 -14 -8 -13 -23 2 -9 9 -12 2 -12 -35 0
-45 1 -46 45 -66 46 -20 115 -75 238 -189 40 -37 97 -77 135 -95 46 -22 68
-38 70 -52 2 -11 16 -38 32 -60 16 -22 42 -57 56 -78 l27 -38 -20 -20 c-29
-30 -127 -37 -174 -14 -44 23 -118 86 -250 213 -58 56 -109 102 -113 102 -3 0
-6 -7 -6 -15 0 -13 -4 -14 -20 -5 -38 20 -21 -8 31 -52 28 -24 108 -100 179
-170 71 -71 136 -128 145 -128 9 0 13 5 9 11 -5 8 -1 8 14 0 11 -6 72 -12 134
-13 l113 -2 -105 -5 -105 -6 160 -7 c188 -9 233 -20 312 -81 123 -95 458 -426
588 -582 50 -60 85 -118 139 -230 70 -143 146 -324 146 -345 0 -17 50 -183 77
-255 80 -214 316 -591 540 -862 118 -142 379 -394 513 -494 241 -180 331 -239
585 -386 169 -98 532 -271 684 -324 45 -17 122 -37 170 -44 107 -18 353 -18
524 -1 71 7 146 10 168 6 22 -4 174 -4 337 1 620 19 1129 91 1447 204 142 51
187 65 214 65 25 0 92 -62 183 -172 26 -31 87 -88 135 -127 141 -113 278 -174
391 -175 55 0 66 4 89 27 21 21 28 38 31 85 2 33 -1 68 -7 78 -8 15 -10 6 -11
-46 0 -71 -16 -113 -44 -118 -16 -3 -16 -2 3 17 17 17 21 33 21 91 l0 70 -77
77 c-43 43 -80 76 -83 76 -3 -1 -6 6 -7 15 0 9 -7 32 -14 50 -13 31 -12 34 13
55 15 12 28 29 29 37 5 31 -13 100 -29 109 -14 8 -14 11 1 34 9 14 43 46 77
72 33 25 74 67 92 93 17 26 24 41 15 33 -51 -41 -8 46 48 99 27 25 32 21 15
-11 -18 -33 -4 -21 23 20 82 123 176 322 197 415 6 26 18 106 26 179 9 73 19
149 21 170 8 59 -4 107 -27 107 -13 0 -18 5 -13 16 7 19 -16 64 -34 64 -7 0
-13 4 -13 10 0 16 -125 143 -162 164 -29 17 -27 14 13 -22 65 -58 152 -192
124 -192 -2 0 -11 12 -19 28 -32 60 -96 106 -96 68 0 -13 -57 -43 -74 -38 -4
1 -14 -2 -21 -8 -19 -16 -342 -5 -362 12 -8 6 -12 20 -10 30 3 10 1 18 -5 18
-6 0 -7 11 -4 25 9 34 -4 32 -59 -11 -56 -42 -72 -38 -24 7 189 178 363 233
507 160 115 -58 201 -146 275 -281 17 -32 18 -32 39 -14 l22 19 -17 -28 c-12
-18 -15 -33 -9 -43 7 -13 13 -11 35 15 14 17 29 31 33 31 4 0 -2 -10 -13 -22
-29 -33 -41 -59 -38 -88 2 -14 4 -26 4 -27 1 -1 13 3 29 8 15 5 39 27 55 47
98 131 170 222 201 252 63 62 182 256 300 490 72 143 119 220 137 228 4 2 65
62 136 134 325 331 565 538 605 523 8 -3 21 7 31 22 9 16 52 65 95 111 43 45
76 84 74 87 -16 16 109 142 401 405 135 121 166 175 136 232 -6 12 -189 197
-406 412 -336 333 -395 395 -392 416 3 16 13 28 32 34 27 10 38 -1 360 -322
183 -183 340 -332 350 -332 9 0 15 -6 12 -12 -2 -7 18 -31 45 -53 69 -57 103
-123 104 -204 l1 -64 -90 -86 c-49 -47 -135 -126 -190 -175 -55 -50 -146 -135
-202 -189 -80 -79 -106 -99 -122 -94 -17 4 -21 2 -16 -12 3 -11 -18 -39 -71
-91 -42 -41 -100 -104 -129 -140 -29 -36 -156 -166 -281 -290 -483 -475 -424
-406 -551 -646 -107 -203 -165 -299 -175 -288 -3 2 -22 -28 -41 -68 -23 -47
-74 -117 -141 -195 -92 -107 -103 -124 -88 -133 14 -9 14 -10 -5 -5 -18 5 -30
-2 -55 -32 -18 -21 -66 -73 -107 -115 l-74 -77 -14 -82 c-12 -68 -40 -158 -79
-253 -14 -35 305 277 470 460 84 92 289 370 363 489 106 173 195 339 228 428
18 49 24 53 53 38 45 -24 232 -32 664 -29 413 3 448 4 460 21 8 10 38 22 73
28 33 6 68 15 77 20 10 5 25 9 33 9 20 0 19 20 -5 50 l-19 25 -578 5 c-318 3
-526 7 -463 8 79 2 110 5 100 12 -8 5 -34 10 -57 10 -59 0 -93 15 -93 41 0 39
41 92 194 249 83 86 169 181 191 213 82 118 116 161 206 260 109 121 358 367
370 367 5 0 9 7 9 15 0 8 4 15 9 15 8 0 69 44 104 74 9 9 21 16 25 16 14 0 52
45 52 62 0 8 9 27 20 41 24 31 25 34 3 40 -12 3 -10 5 7 6 39 2 54 15 42 37
-9 19 -24 111 -24 151 0 14 -8 25 -20 29 -15 4 -17 8 -8 14 9 6 4 19 -20 49
-29 35 -39 41 -74 42 -30 2 -34 3 -13 6 34 5 34 14 -1 35 -48 28 -354 364
-383 420 -16 30 -146 149 -201 184 -61 39 -170 64 -280 64 -57 0 -98 4 -98 10
0 6 36 7 95 3 67 -4 95 -3 95 5 0 6 -19 16 -42 22 -136 35 -145 60 -59 154 68
75 98 112 79 97 -10 -8 -18 -9 -18 -3 0 13 246 250 285 274 17 10 37 18 46 18
9 0 25 11 35 25 21 29 36 33 27 8 -5 -13 -2 -15 11 -10 10 4 22 7 28 7 7 0 7
4 -1 13 -8 10 -7 17 1 25 9 9 4 12 -24 12 -20 0 -38 -4 -40 -9 -1 -5 -38 -11
-82 -13 l-78 -3 -71 -73 c-85 -87 -99 -107 -67 -97 l22 7 -18 -32 c-22 -36
-88 -100 -105 -100 -6 0 -9 9 -6 19 4 15 -4 12 -40 -15 -41 -31 -50 -34 -111
-33 l-67 2 69 8 c41 4 75 14 85 24 15 15 13 15 -27 9 -65 -10 -119 17 -134 69
-10 34 -10 41 5 52 16 11 16 13 1 19 -8 3 -28 6 -42 7 -27 1 -27 1 -3 8 l24 6
-26 12 c-20 9 -49 59 -127 215 -146 291 -196 373 -354 588 -154 209 -435 521
-468 520 -7 0 0 -12 15 -25 15 -14 26 -25 23 -25 -3 0 5 -10 17 -23 20 -21 54
-60 148 -167 17 -19 45 -55 62 -79 18 -24 49 -62 70 -86 20 -23 37 -45 37 -49
0 -4 5 -12 10 -19 6 -7 33 -43 60 -82 27 -38 56 -77 64 -86 9 -9 16 -18 16
-21 0 -8 111 -192 120 -198 12 -9 91 -150 123 -219 24 -55 105 -263 123 -322
7 -19 -33 -68 -75 -92 -29 -17 -31 -17 -49 1 -11 11 -28 44 -37 73 -27 81
-145 321 -210 429 -271 444 -629 841 -1015 1126 -272 201 -553 356 -885 489
-108 43 -229 86 -275 97 -25 6 -39 13 -32 15 22 8 13 33 -15 44 -16 6 -83 22
-151 35 -163 32 -186 21 -142 -66 l20 -40 -20 0 c-58 0 -129 59 -185 154 -20
34 -33 46 -51 46 -13 0 -24 -5 -24 -12z m-1170 -80 c-13 -10 -28 -22 -34 -26
-24 -15 -443 -486 -684 -768 -115 -135 -157 -173 -173 -157 -12 12 25 62 137
187 49 55 136 154 193 220 57 67 191 221 298 343 l195 222 46 -1 46 -1 -24
-19z m1677 -64 c-3 -3 -12 -4 -19 -1 -8 3 -5 6 6 6 11 1 17 -2 13 -5z m40 -10
c-3 -3 -12 -4 -19 -1 -8 3 -5 6 6 6 11 1 17 -2 13 -5z m-167 -125 c68 -17 130
-35 139 -40 15 -8 194 -69 216 -73 5 -2 27 -10 48 -19 21 -9 71 -28 110 -42
40 -15 127 -53 195 -86 155 -76 229 -146 168 -157 -10 -2 -26 -12 -37 -23 -21
-21 -23 -20 -119 43 -119 77 -426 220 -475 220 -53 1 -241 52 -255 70 -10 12
-46 25 -105 37 -122 26 -125 27 -125 65 0 18 3 36 8 40 11 12 97 -1 232 -35z
m-2361 -134 c0 -5 -4 -3 -9 5 -5 8 -9 22 -9 30 0 16 17 -16 18 -35z m2705
-104 c3 -5 -17 -20 -44 -33 -28 -14 -50 -23 -50 -20 0 2 12 17 28 32 27 28 56
37 66 21z m-379 -69 c-3 -3 -11 0 -18 7 -9 10 -8 11 6 5 10 -3 15 -9 12 -12z
m-577 -37 c546 -75 1064 -359 1324 -726 237 -334 399 -723 453 -1084 16 -112
35 -386 35 -516 l0 -86 48 -7 c27 -3 84 -24 128 -45 178 -86 208 -161 208
-511 0 -184 -3 -230 -22 -318 -51 -236 -130 -392 -266 -527 -116 -114 -242
-175 -366 -175 l-47 0 -12 -66 c-27 -150 -124 -363 -239 -524 -88 -124 -407
-445 -617 -620 -88 -74 -243 -215 -345 -315 -102 -100 -205 -193 -230 -208
-201 -115 -611 -109 -803 13 -27 17 -117 99 -200 183 -84 85 -235 225 -337
313 -488 419 -723 726 -847 1103 l-38 116 -57 0 c-47 1 -73 9 -155 49 -82 41
-111 62 -183 135 -139 140 -228 304 -271 503 -41 186 -46 457 -13 622 19 96
53 149 127 197 54 35 170 79 209 79 13 0 16 36 21 243 3 137 12 290 21 354 21
145 75 360 124 498 75 211 219 498 313 626 66 90 215 231 329 311 342 242 640
343 1185 402 78 8 412 -4 523 -19z m1188 -10 c10 -8 14 -15 8 -15 -5 0 -19 7
-30 15 -10 8 -14 15 -8 15 5 0 19 -7 30 -15z m472 -27 c27 -27 12 -58 -60
-127 -40 -38 -76 -67 -80 -65 -14 9 -8 41 12 67 11 14 20 30 20 36 0 6 5 11
10 11 6 0 10 8 10 17 0 19 48 73 65 73 6 0 16 -5 23 -12z m-798 -28 c8 -5 11
-10 5 -10 -5 0 -17 5 -25 10 -8 5 -10 10 -5 10 6 0 17 -5 25 -10z m111 -46
c33 -15 58 -29 56 -31 -2 -2 -33 10 -68 26 -35 17 -60 30 -55 31 5 0 35 -12
67 -26z m174 -14 c3 -6 -1 -7 -9 -4 -18 7 -21 14 -7 14 6 0 13 -4 16 -10z
m616 -26 c22 -20 9 -55 -27 -74 -19 -11 -27 -10 -49 4 -29 19 -32 42 -8 68 20
22 60 23 84 2z m-629 -35 c95 -48 316 -185 438 -271 211 -150 424 -344 580
-528 30 -35 -30 21 -135 126 -104 105 -239 230 -300 278 -148 117 -391 279
-550 365 -143 78 -161 94 -33 30z m152 -28 c-2 -3 -12 3 -22 13 -16 17 -16 18
5 5 12 -7 20 -15 17 -18z m686 -133 c0 -29 -16 -28 -51 3 -19 17 -47 41 -62
53 -27 21 -28 24 -12 39 15 16 20 14 71 -31 29 -26 54 -55 54 -64z m-520 61
c0 -5 -13 0 -30 13 -16 12 -30 23 -30 25 0 2 14 -3 30 -12 17 -9 30 -20 30
-26z m35 31 c3 -5 1 -10 -4 -10 -6 0 -11 5 -11 10 0 6 2 10 4 10 3 0 8 -4 11
-10z m410 -90 c52 -39 68 -60 44 -60 -25 0 -121 78 -113 91 8 13 11 12 69 -31z
m-409 -21 c19 -11 34 -23 34 -26 0 -4 -62 30 -79 44 -16 12 18 -1 45 -18z
m-3496 -7 c0 -14 -40 -46 -155 -122 -141 -93 -240 -173 -390 -313 -206 -192
-389 -402 -494 -566 -21 -32 -37 -48 -46 -44 -17 6 -12 19 48 108 223 331 682
768 965 916 56 30 72 35 72 21z m3644 -31 c-2 -3 -12 3 -22 13 -16 17 -16 18
5 5 12 -7 20 -15 17 -18z m-14 -57 c0 -3 -20 9 -45 26 -25 17 -45 33 -45 36 0
3 20 -9 45 -26 25 -17 45 -33 45 -36z m493 -13 c29 -21 85 -73 126 -116 65
-69 72 -80 57 -90 -14 -11 -14 -14 -2 -25 9 -6 24 -9 36 -5 12 4 28 1 37 -7
14 -11 16 -11 8 1 -5 10 -4 12 3 7 7 -4 12 -12 12 -17 0 -6 13 -22 28 -37 32
-30 82 -95 82 -106 0 -3 -11 1 -25 10 -25 16 -35 8 -15 -12 8 -8 6 -15 -4 -23
-13 -11 -24 -7 -63 22 -67 49 -127 113 -119 126 4 6 0 11 -11 11 -10 0 -57 31
-105 70 -80 65 -122 105 -87 85 8 -4 -1 8 -18 26 -18 19 -33 43 -33 52 0 25
28 32 49 13 26 -24 37 -19 14 7 -51 57 -40 60 30 8z m-148 -231 c3 -6 -1 -7
-9 -4 -18 7 -21 14 -7 14 6 0 13 -4 16 -10z m250 -230 c3 -5 2 -10 -4 -10 -5
0 -13 5 -16 10 -3 6 -2 10 4 10 5 0 13 -4 16 -10z m365 -54 c44 -48 120 -166
120 -186 0 -9 -11 -27 -25 -40 l-26 -24 -99 104 c-55 58 -100 112 -100 121 0
15 64 58 87 59 7 0 26 -15 43 -34z m-283 -62 c-3 -3 -12 -4 -19 -1 -8 3 -5 6
6 6 11 1 17 -2 13 -5z m123 -184 c0 -5 -7 -7 -15 -4 -8 4 -15 8 -15 10 0 2 7
4 15 4 8 0 15 -4 15 -10z m434 -103 c13 -13 31 -48 41 -78 10 -30 30 -79 45
-109 15 -30 39 -96 54 -147 14 -51 40 -131 58 -178 l33 -85 250 -253 c137
-138 374 -378 526 -532 357 -361 355 -353 190 -510 -388 -370 -634 -595 -650
-595 -17 0 -31 18 -31 40 0 5 148 150 329 324 180 174 336 331 346 350 11 20
16 42 12 57 -7 26 -699 721 -912 916 -151 138 -165 161 -231 358 -26 77 -69
194 -95 260 -54 134 -58 156 -29 185 26 26 36 25 64 -3z m-6289 -35 c-4 -9
-47 -123 -96 -252 -49 -129 -98 -253 -110 -276 -12 -24 -86 -106 -177 -195
-86 -84 -274 -269 -417 -409 -143 -140 -321 -314 -396 -385 -146 -140 -161
-165 -132 -223 8 -15 167 -178 355 -362 247 -243 339 -341 337 -354 -2 -10
-14 -26 -27 -34 -23 -15 -29 -9 -392 354 -322 322 -370 374 -375 406 -4 21 -4
50 0 65 4 19 140 160 418 432 721 708 712 698 732 761 21 66 149 409 172 464
21 46 48 59 86 39 21 -10 27 -19 22 -31z m7445 -138 c0 -20 -27 -46 -67 -64
-25 -11 -48 -18 -50 -16 -9 8 30 57 56 71 26 14 61 20 61 9z m-289 -363 c-24
-34 -113 -91 -139 -90 -9 0 6 11 33 23 28 13 66 40 84 60 42 44 50 46 22 7z
m-9391 -576 c47 -47 82 -85 80 -85 -3 0 -43 38 -90 85 -47 47 -82 85 -80 85 3
0 43 -38 90 -85z m365 5 c3 -5 1 -10 -4 -10 -6 0 -11 5 -11 10 0 6 2 10 4 10
3 0 8 -4 11 -10z m-500 -100 c27 -27 47 -50 44 -50 -3 0 -27 23 -54 50 -27 28
-47 50 -44 50 3 0 27 -22 54 -50z m290 -50 c10 -11 16 -20 13 -20 -3 0 -13 9
-23 20 -10 11 -16 20 -13 20 3 0 13 -9 23 -20z m1435 -65 c-6 -16 -78 -97
-159 -180 -93 -93 -155 -165 -165 -189 -20 -48 -20 -103 -1 -150 9 -20 13 -41
10 -46 -11 -18 -64 -21 -94 -5 -41 21 -121 140 -121 181 0 49 57 111 239 262
234 195 250 204 284 172 15 -14 16 -21 7 -45z m-1650 -282 c0 -8 -9 0 -50 45
l-45 47 48 -45 c26 -24 47 -45 47 -47z m100 -88 c13 -14 21 -25 18 -25 -2 0
-15 11 -28 25 -13 14 -21 25 -18 25 2 0 15 -11 28 -25z m0 -354 c0 -7 -195
182 -204 198 -5 9 39 -31 98 -89 58 -57 106 -106 106 -109z m8094 -577 c11
-28 6 -51 -5 -24 -10 25 -11 24 -36 -25 -22 -43 -83 -115 -83 -98 0 10 50 94
77 131 27 36 38 40 47 16z m536 -44 c18 -11 7 -34 -31 -63 -27 -19 -213 -71
-233 -64 -6 2 15 10 48 17 117 24 206 64 206 92 0 14 -86 9 -172 -12 -46 -11
-111 -20 -145 -20 -34 0 -73 -4 -87 -10 -14 -5 -26 -6 -26 -1 0 15 28 21 93
21 34 0 107 11 162 24 109 26 162 31 185 16z m-395 -110 c3 -5 1 -10 -4 -10
-6 0 -11 5 -11 10 0 6 2 10 4 10 3 0 8 -4 11 -10z m-1068 -16 c-3 -3 -12 -4
-19 -1 -8 3 -5 6 6 6 11 1 17 -2 13 -5z m104 -39 c41 -19 89 -35 108 -35 19 0
73 -7 120 -16 100 -19 240 -14 339 11 84 22 113 14 37 -10 -151 -46 -295 -51
-400 -14 -22 8 -65 16 -95 18 -54 3 -70 8 -160 56 -69 37 -31 29 51 -10z m689
-10 c-6 -15 -13 -26 -15 -23 -3 2 1 19 8 37 6 17 13 28 15 23 1 -5 -2 -22 -8
-37z m314 18 c7 -16 14 -47 14 -71 1 -35 -2 -43 -16 -40 -12 3 -16 11 -14 28
6 47 6 75 -2 93 -13 28 2 19 18 -10z m66 -23 c0 -42 -22 -130 -32 -130 -5 0
-7 8 -4 18 19 63 25 114 16 132 -14 27 -12 34 5 20 8 -7 15 -25 15 -40z
m-1074 -46 c48 -22 53 -28 42 -41 -12 -15 -13 -14 -16 0 -2 10 -10 17 -19 17
-18 0 -73 31 -73 42 0 12 7 10 66 -18z m1182 -63 c48 -27 113 -57 145 -67 31
-10 57 -21 57 -25 0 -16 -100 14 -187 56 -51 25 -97 45 -102 45 -11 0 -22 26
-14 34 9 9 6 10 101 -43z m-1081 13 c-3 -3 -12 -4 -19 -1 -8 3 -5 6 6 6 11 1
17 -2 13 -5z m630 -31 c-3 -10 -5 -4 -5 12 0 17 2 24 5 18 2 -7 2 -21 0 -30z
m466 -83 c82 -47 113 -61 132 -56 30 8 32 1 5 -14 -16 -9 -39 0 -128 47 -140
74 -157 86 -148 102 6 9 11 9 19 -2 7 -8 60 -43 120 -77z m-148 -10 c16 -17
53 -47 82 -67 29 -20 53 -38 53 -39 0 -15 -133 70 -164 105 -13 14 -26 19 -39
15 -13 -4 -17 -2 -13 5 13 20 52 11 81 -19z m-226 -65 c19 -14 49 -25 65 -25
27 -1 28 -2 13 -11 -31 -18 -108 30 -138 86 -9 17 -7 16 8 -2 10 -12 33 -34
52 -48z m188 33 c11 -13 24 -33 28 -45 5 -20 3 -23 -19 -23 -28 0 -46 25 -46
64 0 32 10 33 37 4z m34 -138 c16 -7 28 -15 25 -17 -17 -17 -116 72 -116 104
0 9 14 -4 30 -29 17 -25 44 -51 61 -58z m179 50 c8 -5 11 -10 5 -10 -5 0 -17
5 -25 10 -8 5 -10 10 -5 10 6 0 17 -5 25 -10z m95 -10 c8 -13 -5 -13 -25 0
-13 8 -13 10 2 10 9 0 20 -4 23 -10z m-1288 -6 c-3 -3 -12 -4 -19 -1 -8 3 -5
6 6 6 11 1 17 -2 13 -5z m-70 -10 c-3 -3 -12 -4 -19 -1 -8 3 -5 6 6 6 11 1 17
-2 13 -5z m1273 -9 c0 -1 -11 -5 -25 -7 -20 -4 -23 -2 -14 8 8 10 39 10 39 -1z
m65 5 c7 -12 -2 -12 -30 0 -19 8 -19 9 2 9 12 1 25 -3 28 -9z m-1499 -56 c-17
-25 -36 -32 -36 -14 0 6 7 13 15 17 9 3 15 13 14 22 -3 30 2 36 12 18 8 -14 7
-24 -5 -43z m411 50 c-3 -3 -12 -4 -19 -1 -8 3 -5 6 6 6 11 1 17 -2 13 -5z
m150 0 c-3 -3 -12 -4 -19 -1 -8 3 -5 6 6 6 11 1 17 -2 13 -5z m-602 -94 c4 -6
-5 -10 -20 -10 -15 0 -24 4 -20 10 3 6 12 10 20 10 8 0 17 -4 20 -10z m2129
-1 c26 -1 23 -3 -14 -10 -63 -11 -178 -11 -184 0 -10 16 17 21 93 16 41 -3 88
-6 105 -6z m-679 -9 c3 -5 1 -10 -4 -10 -6 0 -11 5 -11 10 0 6 2 10 4 10 3 0
8 -4 11 -10z m-1533 -12 c-6 -8 -7 -64 -2 -153 6 -115 11 -149 30 -190 12 -27
23 -67 23 -89 0 -22 10 -64 23 -93 28 -63 43 -140 26 -129 -7 4 -12 13 -12 21
0 7 -13 53 -30 101 -16 48 -29 101 -28 118 0 17 -11 54 -24 83 -23 46 -26 64
-27 188 -2 136 1 155 21 155 7 0 7 -4 0 -12z m1518 -22 c0 -3 -4 -8 -10 -11
-5 -3 -10 -1 -10 4 0 6 5 11 10 11 6 0 10 -2 10 -4z m-6854 -21 c4 -8 14 -15
24 -15 32 0 199 -150 226 -202 22 -44 28 -48 62 -50 l37 -1 -33 -4 c-19 -3
-32 -9 -30 -16 8 -32 100 -198 136 -247 23 -30 51 -70 64 -88 13 -19 51 -69
86 -113 34 -43 62 -82 62 -86 1 -4 20 -30 44 -56 l44 -49 41 37 c50 46 54 39
6 -9 -19 -20 -35 -39 -35 -44 0 -11 330 -335 419 -412 35 -30 70 -54 77 -52 8
2 14 -5 14 -16 0 -29 183 -173 367 -290 85 -54 102 -61 104 -39 1 6 4 1 8 -13
5 -19 42 -42 176 -112 94 -48 180 -88 193 -88 14 0 26 8 32 23 5 13 9 16 9 7
1 -9 -4 -21 -11 -28 -8 -8 -5 -13 13 -21 88 -34 115 -45 125 -53 6 -4 42 -19
80 -32 38 -13 76 -27 85 -31 12 -4 19 1 24 17 8 23 8 22 12 -4 5 -32 17 -36
33 -10 9 15 10 14 5 -6 -5 -19 -1 -25 30 -37 19 -9 73 -25 120 -35 72 -18 117
-31 183 -55 9 -3 3 -18 -21 -47 -28 -34 -51 -49 -112 -71 -53 -20 -86 -27
-108 -23 -18 3 -41 8 -52 10 -24 5 -116 36 -210 71 -38 15 -82 30 -97 35 -15
5 -40 15 -55 23 -15 9 -112 56 -214 105 -102 49 -212 106 -243 126 -31 20 -58
36 -61 36 -2 0 -40 25 -84 55 -44 30 -85 55 -91 55 -5 0 -10 4 -10 9 0 5 -8
11 -17 15 -21 6 -51 25 -71 44 -7 6 -44 33 -80 59 -137 96 -291 232 -497 439
-253 254 -269 273 -514 635 -111 163 -187 308 -268 509 -30 74 -57 141 -60
148 -3 7 2 12 11 12 9 0 19 -7 22 -15z m6714 -185 c0 -5 -5 -10 -11 -10 -5 0
-7 5 -4 10 3 6 8 10 11 10 2 0 4 -4 4 -10z m-66 -189 c-3 -3 -15 6 -27 18
l-22 24 27 -19 c14 -10 24 -21 22 -23z m-6063 -33 c66 -72 189 -241 189 -261
0 -23 -37 -67 -56 -67 -6 0 -14 6 -17 13 -2 6 -50 73 -106 146 -102 136 -108
151 -79 189 17 20 37 14 69 -20z m5994 2 c3 -5 1 -10 -4 -10 -6 0 -11 5 -11
10 0 6 2 10 4 10 3 0 8 -4 11 -10z m275 -120 c0 -5 -4 -10 -10 -10 -5 0 -10 5
-10 10 0 6 5 10 10 10 6 0 10 -4 10 -10z m-1981 -52 c12 -21 20 -38 17 -38 -8
0 -46 62 -46 74 0 11 1 10 29 -36z m1538 10 c-3 -8 -6 -5 -6 6 -1 11 2 17 5
13 3 -3 4 -12 1 -19z m493 2 c0 -5 -4 -10 -9 -10 -6 0 -13 5 -16 10 -3 6 1 10
9 10 9 0 16 -4 16 -10z m-6014 -26 c-4 -9 -9 -15 -11 -12 -3 3 -3 13 1 22 4 9
9 15 11 12 3 -3 3 -13 -1 -22z m5569 -24 c3 -5 1 -10 -4 -10 -6 0 -11 5 -11
10 0 6 2 10 4 10 3 0 8 -4 11 -10z m-111 -46 c9 -23 4 -24 -16 -2 -14 14 -15
18 -4 18 8 0 17 -7 20 -16z m469 1 c-3 -9 -8 -14 -10 -11 -3 3 -2 9 2 15 9 16
15 13 8 -4z m-508 -15 c-3 -5 -11 -10 -16 -10 -6 0 -7 5 -4 10 3 6 11 10 16
10 6 0 7 -4 4 -10z m-1358 -52 c-3 -8 -6 -5 -6 6 -1 11 2 17 5 13 3 -3 4 -12
1 -19z m1303 -105 c0 -20 -3 -24 -11 -16 -7 7 -9 19 -6 27 10 24 17 19 17 -11z
m-5537 2 c-6 -17 -25 -15 -31 3 -2 7 5 12 17 12 14 0 19 -5 14 -15z m327 1 c0
-2 -7 -9 -15 -16 -13 -11 -14 -10 -9 4 5 14 24 23 24 12z m5650 -11 c0 -11
-61 -35 -87 -34 -22 0 -17 3 20 13 26 7 50 16 54 19 7 8 13 9 13 2z m-5531
-122 c42 -43 109 -107 149 -142 39 -35 72 -72 72 -81 0 -9 -9 -25 -21 -36 -16
-15 -24 -16 -39 -6 -11 7 -24 12 -30 12 -38 0 -280 215 -280 249 0 22 46 81
63 81 5 0 44 -35 86 -77z m813 -26 c272 -186 584 -334 930 -442 93 -29 109
-41 133 -98 16 -38 74 -251 126 -462 16 -66 41 -157 54 -202 26 -83 25 -107
-2 -117 -48 -19 -70 20 -109 184 -13 58 -38 155 -54 215 -17 61 -43 159 -59
218 -31 112 -52 157 -74 157 -29 0 -232 73 -362 130 -77 33 -178 77 -224 97
-46 20 -98 47 -115 59 -17 13 -55 35 -85 50 -66 33 -255 157 -293 192 -30 28
-35 51 -16 70 23 23 58 11 150 -51z m3104 -39 l29 -33 -32 29 c-31 28 -38 36
-30 36 2 0 16 -15 33 -32z m104 -85 c0 -7 -58 36 -66 49 -4 7 9 -1 29 -16 20
-16 37 -30 37 -33z m-3726 22 c-15 -23 -15 -27 0 -50 9 -14 26 -26 39 -26 22
-2 22 -2 -1 -6 -49 -9 -80 51 -45 89 23 26 26 22 7 -7z m79 -50 c-3 -9 -8 -14
-10 -11 -3 3 -2 9 2 15 9 16 15 13 8 -4z m3737 -1 c0 -2 -9 -4 -20 -4 -11 0
-20 4 -20 9 0 5 9 7 20 4 11 -3 20 -7 20 -9z m131 -149 c-22 -125 -26 -96 -7
40 7 50 12 92 10 94 -3 3 -30 4 -62 4 l-57 -1 59 9 c32 5 62 11 65 15 13 13
10 -57 -8 -161z m-3510 78 c129 -84 170 -110 249 -153 72 -39 280 -132 400
-176 36 -14 75 -32 88 -40 44 -29 16 -120 -34 -108 -20 5 -26 1 -39 -27 l-14
-34 5 46 6 46 -53 21 c-30 12 -66 24 -82 28 -15 3 -31 12 -35 18 -4 7 -32 23
-62 35 -203 86 -544 286 -584 343 -7 10 -11 30 -8 44 4 24 8 26 39 21 19 -3
75 -32 124 -64z m-570 -81 c-7 -2 -18 1 -23 6 -8 8 -4 9 13 5 13 -4 18 -8 10
-11z m176 2 c-3 -3 -12 -4 -19 -1 -8 3 -5 6 6 6 11 1 17 -2 13 -5z m-253 -39
c-7 -16 -24 -21 -24 -6 0 8 7 13 27 20 1 1 0 -6 -3 -14z m-49 -5 c3 -5 1 -10
-4 -10 -6 0 -11 5 -11 10 0 6 2 10 4 10 3 0 8 -4 11 -10z m4176 -170 c-8 -50
-8 -77 -1 -90 12 -23 -2 -27 -19 -7 -8 10 -7 32 4 83 8 38 15 80 16 94 1 17 3
20 6 7 2 -9 0 -49 -6 -87z m-3157 -77 c-5 -19 -2 -30 11 -40 11 -7 14 -13 8
-13 -15 0 -43 28 -43 44 0 11 19 36 27 36 2 0 0 -12 -3 -27z m3112 -10 c-4 -4
-11 -1 -16 7 -16 25 -11 35 7 17 9 -9 13 -20 9 -24z m-50 -30 c-7 -7 -26 7
-26 19 0 6 6 6 15 -2 9 -7 13 -15 11 -17z m-2981 -2 c-3 -6 -11 -11 -17 -11
-6 0 -6 6 2 15 14 17 26 13 15 -4z m130 -66 c-20 -52 -31 -55 -14 -4 6 19 13
40 15 48 3 8 7 11 10 8 3 -3 -2 -26 -11 -52z m2720 24 c11 -17 -1 -21 -15 -4
-8 9 -8 15 -2 15 6 0 14 -5 17 -11z m-115 -34 c13 -14 21 -25 18 -25 -2 0 -15
11 -28 25 -13 14 -21 25 -18 25 2 0 15 -11 28 -25z m-105 -15 c10 -11 16 -20
13 -20 -3 0 -13 9 -23 20 -10 11 -16 20 -13 20 3 0 13 -9 23 -20z m-40 -10
c10 -11 16 -20 13 -20 -3 0 -13 9 -23 20 -10 11 -16 20 -13 20 3 0 13 -9 23
-20z m115 5 c7 -9 8 -15 2 -15 -5 0 -12 7 -16 15 -3 8 -4 15 -2 15 2 0 9 -7
16 -15z m344 -11 c10 -26 -4 -84 -20 -84 -8 0 -29 -21 -47 -46 -28 -40 -32
-43 -35 -24 -4 25 3 26 -137 -25 -315 -116 -737 -199 -1076 -212 -166 -6 -167
-6 -179 16 -15 28 -6 67 17 76 10 3 86 11 168 16 293 19 506 53 782 124 158
41 356 107 438 146 70 33 81 35 89 13z m-499 -4 c3 -5 2 -10 -4 -10 -5 0 -13
5 -16 10 -3 6 -2 10 4 10 5 0 13 -4 16 -10z m-85 -20 c0 -5 -2 -10 -4 -10 -3
0 -8 5 -11 10 -3 6 -1 10 4 10 6 0 11 -4 11 -10z m-36 -16 c5 -14 4 -15 -9 -4
-17 14 -19 20 -6 20 5 0 12 -7 15 -16z m146 -4 c0 -5 -2 -10 -4 -10 -3 0 -8 5
-11 10 -3 6 -1 10 4 10 6 0 11 -4 11 -10z m-172 -45 c-3 -3 -9 2 -12 12 -6 14
-5 15 5 6 7 -7 10 -15 7 -18z m47 15 c3 -5 1 -10 -4 -10 -6 0 -11 5 -11 10 0
6 2 10 4 10 3 0 8 -4 11 -10z m-225 -10 c0 -5 -2 -10 -4 -10 -3 0 -8 5 -11 10
-3 6 -1 10 4 10 6 0 11 -4 11 -10z m100 -20 c0 -5 -2 -10 -4 -10 -3 0 -8 5
-11 10 -3 6 -1 10 4 10 6 0 11 -4 11 -10z m-2510 -20 c0 -6 -10 -8 -23 -5 -31
8 -55 -18 -37 -40 10 -12 10 -15 -4 -15 -22 0 -21 46 2 59 22 13 62 14 62 1z
m572 -19 c2 -17 1 -28 -4 -25 -8 5 -12 54 -4 54 2 0 6 -13 8 -29z m1355 2
c-20 -2 -52 -2 -70 0 -17 2 0 4 38 4 39 0 53 -2 32 -4z m-239 -10 c-54 -2
-142 -2 -195 0 -54 1 -10 3 97 3 107 0 151 -2 98 -3z m272 -17 c0 -8 12 -17
28 -19 15 -2 -38 -4 -118 -3 -120 0 -127 1 -37 3 91 3 108 6 103 18 -3 9 1 15
9 15 8 0 15 -6 15 -14z m80 -7 c0 -6 -4 -7 -10 -4 -5 3 -10 11 -10 16 0 6 5 7
10 4 6 -3 10 -11 10 -16z m-410 -9 c57 -5 23 -6 -100 -3 -102 3 -187 7 -189 9
-7 7 201 2 289 -6z m1478 -30 c-11 -33 -28 -49 -28 -28 0 13 27 58 35 58 2 0
-1 -14 -7 -30z m-2878 -25 c0 -34 -25 -51 -55 -37 -30 14 -32 36 -4 55 28 20
59 10 59 -18z m1373 28 c-29 -2 -77 -2 -105 0 -29 2 -6 3 52 3 58 0 81 -1 53
-3z m1475 -113 c10 -28 10 -29 -9 -17 -16 10 -48 4 -186 -32 -378 -100 -403
-105 -415 -93 -9 9 -6 12 13 12 13 0 116 25 229 56 113 31 228 62 255 69 28 7
61 17 75 23 14 6 26 11 27 11 0 1 6 -12 11 -29z m-2348 -19 c0 -12 -30 -22
-43 -14 -7 4 -3 9 9 14 26 10 34 10 34 0z m-95 -91 c-3 -5 -10 -10 -16 -10 -5
0 -9 5 -9 10 0 6 7 10 16 10 8 0 12 -4 9 -10z m1802 -26 c-3 -3 -12 -4 -19 -1
-8 3 -5 6 6 6 11 1 17 -2 13 -5z m993 -241 c0 -8 -36 16 -55 38 -16 19 -13 18
18 -5 20 -16 37 -30 37 -33z m50 -29 c0 -2 -9 0 -20 6 -11 6 -20 13 -20 16 0
2 9 0 20 -6 11 -6 20 -13 20 -16z"/>
<path d="M4945 8726 c-186 -46 -341 -107 -473 -187 -102 -62 -224 -164 -261
-219 -19 -28 -37 -47 -40 -43 -17 22 -45 5 -122 -74 -103 -106 -148 -170 -226
-328 -97 -194 -195 -467 -208 -578 -8 -72 -13 -139 -19 -242 -3 -55 -8 -138
-12 -185 -4 -62 -3 -81 5 -70 8 11 10 0 6 -45 l-5 -60 14 40 c8 22 15 52 15
66 1 25 58 116 67 106 3 -2 -5 -29 -18 -58 -21 -51 -23 -70 -26 -324 -2 -200
1 -302 12 -394 9 -69 13 -127 11 -130 -3 -2 -5 4 -5 15 -1 10 -7 33 -15 49 -8
17 -14 23 -14 15 3 -48 -5 -34 -30 50 -36 122 -56 166 -88 196 -14 13 -21 24
-15 24 6 0 9 7 7 15 -3 8 -7 22 -10 30 -3 11 -10 12 -35 4 -29 -10 -29 -12
-13 -25 13 -10 14 -13 4 -14 -10 0 -8 -6 7 -23 28 -29 29 -81 2 -109 -10 -11
-26 -35 -35 -54 -14 -30 -68 -84 -84 -84 -3 0 -30 32 -59 70 -29 39 -59 70
-67 70 -24 0 -28 -20 -8 -42 18 -21 18 -21 -1 -15 -18 7 -18 6 -1 -19 59 -91
59 -90 37 -136 -12 -24 -24 -79 -28 -123 -10 -98 -8 -87 -20 -108 -20 -34 -36
31 -42 166 -3 72 -9 127 -15 127 -6 0 -8 -79 -4 -217 4 -192 8 -230 30 -315
44 -168 126 -321 228 -427 102 -105 288 -201 369 -189 22 3 31 -1 39 -16 9
-20 10 -20 11 4 1 15 4 19 7 11 4 -10 10 -5 19 15 9 22 13 24 13 10 1 -11 4
-17 7 -13 5 5 -24 161 -46 246 -13 50 -6 49 24 -2 28 -46 32 -62 16 -52 -6 3
-7 -1 -4 -9 3 -9 9 -14 14 -11 9 5 23 -24 65 -140 18 -49 45 -115 58 -146 20
-43 22 -56 11 -56 -8 0 -14 5 -14 10 0 6 -3 7 -6 4 -4 -4 -1 -13 6 -21 6 -9
10 -21 8 -28 -2 -6 -22 16 -43 50 -21 34 -39 62 -40 62 -6 0 32 -144 66 -250
22 -69 40 -131 39 -137 0 -7 5 -13 11 -13 5 0 7 -4 4 -10 -3 -5 5 -20 17 -33
13 -13 22 -29 20 -35 -2 -7 3 -15 12 -18 9 -3 16 -10 16 -16 0 -22 123 -171
230 -279 206 -207 406 -386 418 -375 2 3 -12 27 -32 53 -38 48 103 -95 296
-302 155 -165 257 -243 359 -271 84 -24 317 -30 417 -11 151 29 172 43 412
285 118 119 278 269 355 331 346 283 560 517 673 736 50 97 72 150 72 172 0
12 4 23 10 25 5 2 11 12 13 23 1 11 6 26 11 33 4 7 5 25 2 38 -5 19 -11 24
-24 19 -12 -4 -10 0 6 15 12 11 22 26 22 33 0 8 -3 8 -9 -2 -12 -18 -23 2 -14
26 12 34 -5 9 -45 -67 -25 -47 -55 -87 -83 -110 l-43 -35 29 50 c29 50 79 149
109 215 8 19 37 94 65 167 47 125 80 198 67 148 -3 -11 -12 -47 -21 -80 -17
-67 -19 -105 -6 -105 5 0 12 -32 16 -70 l7 -71 47 6 c216 29 395 173 506 407
51 109 79 217 96 373 20 185 -2 466 -37 496 -15 12 -13 -14 7 -91 18 -72 7
-405 -14 -427 -13 -12 -17 5 -27 113 -13 132 -22 170 -51 200 l-22 23 42 72
c44 77 50 94 26 85 -10 -3 -15 1 -15 12 -1 22 -37 -20 -87 -102 -36 -59 -37
-60 -46 -33 -5 15 -15 27 -22 27 -22 0 -82 82 -96 130 -14 54 -13 87 4 109 6
9 -4 4 -23 -10 -55 -41 -89 -105 -118 -228 -26 -109 -42 -143 -35 -78 3 26 1
28 -6 12 -14 -29 -13 -8 5 128 13 96 15 179 11 392 -3 149 -9 281 -15 296 -8
20 -9 51 -3 99 1 2 18 -24 39 -59 l37 -64 3 49 c2 27 -2 92 -8 144 -6 52 -13
120 -17 150 -13 127 -121 438 -224 640 -77 152 -142 251 -244 370 l-70 82 -6
-33 -6 -34 -12 48 c-11 37 -26 59 -72 102 -120 110 -350 243 -550 318 -149 56
-364 114 -316 86 12 -7 15 -14 9 -22 -11 -14 -27 -77 -23 -94 2 -12 -34 -71
-51 -83 -4 -3 -8 -20 -10 -37 -1 -17 -5 -30 -10 -27 -4 2 -26 -15 -50 -38 -24
-24 -45 -44 -48 -44 -23 -4 -49 -17 -46 -23 3 -4 0 -8 -7 -9 -28 -2 -87 -24
-87 -31 0 -4 -9 -7 -20 -8 -11 -1 -18 2 -15 7 3 5 -11 4 -31 -2 -41 -11 -143
-5 -172 11 -12 6 -30 11 -41 11 -11 0 -35 8 -53 18 -18 11 -41 18 -51 16 -9
-1 -15 2 -12 7 3 4 -7 12 -22 15 -31 8 -113 68 -127 93 -5 9 -18 22 -28 29
-10 7 -18 20 -18 28 0 8 -4 14 -9 14 -10 0 -22 26 -26 57 -3 22 -44 83 -55 83
-4 0 -7 7 -7 15 0 9 6 14 14 11 8 -3 11 -1 8 4 -9 15 -49 11 -150 -14z m901
-761 c111 -73 204 -140 207 -148 3 -8 0 -22 -6 -30 -17 -21 -337 -227 -354
-227 -7 0 -37 14 -66 30 -30 17 -57 30 -60 30 -4 0 -7 -42 -7 -93 0 -85 2 -93
23 -106 12 -8 31 -20 43 -28 19 -12 31 -6 140 73 154 111 265 187 269 182 3
-3 9 -355 6 -400 0 -17 -15 -41 -36 -62 -49 -49 -365 -256 -391 -256 -12 0
-55 22 -95 48 -41 27 -130 83 -197 126 -77 49 -131 90 -143 110 -17 29 -19 54
-19 317 0 259 2 289 18 307 9 11 80 60 157 109 77 49 165 106 195 126 43 30
61 37 85 32 16 -3 120 -66 231 -140z m-2106 -1205 c-12 -23 -24 -39 -27 -36
-4 3 4 27 17 53 13 26 25 42 27 36 2 -6 -5 -30 -17 -53z m3722 3 c11 -25 17
-47 14 -50 -3 -3 -10 6 -15 21 -6 14 -18 40 -27 57 -9 19 -11 28 -4 24 7 -4
21 -28 32 -52z m-3260 -1 c58 -34 142 -91 182 -124 21 -18 46 -37 55 -42 9 -5
21 -15 26 -22 20 -26 88 -74 96 -68 5 3 8 1 7 -4 -2 -5 76 -87 173 -183 157
-155 229 -243 221 -271 -1 -5 3 -8 8 -8 6 0 10 -9 10 -19 0 -11 4 -22 9 -25 4
-3 6 -16 4 -29 -3 -14 2 -31 12 -40 9 -10 12 -17 6 -17 -6 0 -90 77 -186 170
-258 249 -568 510 -667 561 -46 23 -107 33 -153 25 -42 -8 -110 -66 -119 -100
-8 -32 -150 -170 -154 -151 -2 9 -8 13 -13 10 -11 -8 -11 -5 2 36 21 67 31 89
39 84 4 -3 22 17 40 45 45 70 165 170 229 191 39 13 135 2 173 -19z m3017 3
c17 -8 37 -24 44 -35 6 -11 15 -20 20 -20 4 0 24 -15 43 -32 20 -18 41 -33 46
-33 6 0 24 -25 40 -55 24 -44 26 -50 8 -30 -22 25 -22 25 1 -15 27 -48 35 -57
25 -30 -18 50 14 -6 38 -67 27 -68 36 -171 16 -183 -6 -4 -10 7 -10 27 -1 75
-72 180 -159 232 -52 32 -61 42 -61 67 0 52 -90 91 -166 70 -124 -33 -424
-272 -823 -655 -40 -39 -71 -65 -67 -58 4 6 2 12 -4 12 -6 0 -8 10 -5 23 3 12
7 32 8 45 0 12 5 22 9 22 4 0 5 6 2 14 -6 15 150 177 306 317 57 52 110 99
117 106 7 6 13 16 13 22 0 6 12 19 27 28 52 33 64 46 50 55 -9 6 -9 8 2 8 8 0
20 8 28 18 8 9 11 11 8 4 -6 -11 -3 -11 14 -1 11 8 16 16 11 19 -5 3 7 16 26
29 19 13 32 26 30 29 -3 2 -18 -5 -34 -17 -45 -32 -51 -25 -7 8 21 15 46 26
56 24 9 -3 31 5 47 17 53 39 130 60 204 56 36 -3 80 -12 97 -21z m-264 5 c-7
-11 -85 -53 -85 -46 0 4 81 56 88 56 2 0 0 -5 -3 -10z m-2072 -6 c3 -4 2 -15
-4 -25 -7 -14 -21 -19 -54 -19 -48 0 -63 -19 -51 -66 5 -19 13 -24 36 -24 33
0 39 16 13 36 -23 16 -17 21 27 26 l35 3 0 -55 0 -55 -57 -3 c-76 -4 -98 16
-98 91 0 53 12 80 40 90 21 8 105 8 113 1z m405 -92 c3 -85 1 -92 -17 -92 -21
0 -31 18 -31 58 l0 27 -25 -30 -25 -30 -30 33 -30 32 0 -46 c0 -38 -3 -45 -17
-42 -15 3 -18 17 -21 91 -3 82 -2 87 18 87 12 0 31 -15 48 -40 15 -21 32 -38
37 -36 6 1 21 22 34 45 15 27 29 41 40 39 13 -3 16 -19 19 -96z m167 78 c0
-11 -13 -16 -47 -18 -39 -3 -48 -7 -48 -22 0 -15 9 -19 42 -22 59 -4 63 -28 4
-28 -39 0 -46 -3 -46 -20 0 -17 7 -20 51 -20 43 0 50 -3 47 -17 -3 -15 -14
-18 -68 -18 l-65 0 -3 79 c-2 44 -1 85 2 93 8 21 131 14 131 -7z m153 -2 c3
-15 -4 -18 -47 -18 -64 0 -69 -22 -8 -36 50 -11 76 -49 57 -84 -10 -18 -19
-21 -67 -18 -75 4 -86 28 -14 28 44 0 51 3 51 20 0 16 -7 20 -34 20 -42 0 -66
22 -66 59 0 40 18 52 75 49 38 -2 51 -7 53 -20z m150 6 c19 -13 22 -24 20 -57
l-3 -42 -50 -5 c-46 -5 -50 -7 -53 -32 -2 -16 -9 -28 -16 -28 -10 0 -12 21
-10 88 2 48 3 88 4 90 1 10 90 -1 108 -14z m82 -24 l0 -40 40 0 40 0 0 40 c0
29 4 40 15 40 12 0 15 -14 15 -67 0 -38 3 -78 6 -90 5 -17 2 -23 -9 -23 -16 0
-27 20 -27 51 0 16 -7 19 -40 19 -39 0 -40 -1 -40 -35 0 -24 -5 -35 -15 -35
-12 0 -15 17 -15 90 0 73 3 90 15 90 11 0 15 -11 15 -40z m278 18 c3 -15 -4
-18 -47 -18 -44 0 -51 -3 -51 -19 0 -17 8 -20 48 -23 26 -2 47 -7 47 -13 0 -5
-21 -11 -47 -13 -40 -3 -48 -6 -48 -23 0 -16 7 -19 50 -19 36 0 50 -4 50 -14
0 -24 -55 -34 -107 -20 -22 6 -23 12 -23 88 0 46 3 86 7 90 4 4 32 6 63 4 43
-2 56 -7 58 -20z m150 6 c27 -19 31 -78 5 -92 -15 -9 -14 -12 6 -38 21 -26 21
-29 6 -33 -11 -2 -28 10 -42 28 -32 41 -63 42 -63 1 0 -20 -5 -30 -15 -30 -12
0 -15 16 -15 83 0 46 3 87 7 90 12 13 89 7 111 -9z m187 -4 c0 -11 -13 -16
-47 -18 -39 -3 -48 -7 -48 -22 0 -15 9 -19 43 -22 23 -2 42 -7 42 -13 0 -5
-19 -11 -42 -13 -34 -3 -43 -7 -43 -22 0 -15 9 -19 47 -22 26 -2 48 -9 51 -15
3 -10 -14 -13 -62 -13 l-66 0 0 83 c0 46 3 87 7 91 4 4 32 6 63 4 41 -2 55 -7
55 -18z m-1410 -68 c40 -104 40 -102 11 -102 -16 0 -27 7 -31 20 -5 15 -15 20
-40 20 -25 0 -35 -5 -40 -20 -4 -11 -15 -20 -27 -20 -12 0 -18 5 -16 13 61
170 60 167 87 167 23 0 29 -9 56 -78z m-1165 41 c-11 -16 -28 -39 -37 -53 -25
-36 -63 -83 -63 -76 0 21 102 156 118 156 2 0 -6 -12 -18 -27z m3490 -65 c0
-17 -10 -6 -25 25 l-16 32 20 -25 c11 -14 21 -28 21 -32z m-2969 15 c13 -16
12 -17 -3 -4 -10 7 -18 15 -18 17 0 8 8 3 21 -13z m174 -138 c22 -19 37 -34
33 -35 -7 0 -102 75 -148 117 -14 13 -28 23 -32 23 -5 0 -8 5 -8 11 0 10 72
-43 155 -116z m2130 57 c-52 -48 -135 -115 -135 -108 0 6 163 146 170 146 3 0
-13 -17 -35 -38z m-195 -217 c-24 -24 -47 -42 -52 -39 -4 3 -8 1 -8 -4 0 -6
-8 -13 -17 -17 -10 -3 -3 10 16 29 19 20 37 34 39 31 2 -2 15 7 29 21 13 13
27 24 31 24 3 0 -14 -20 -38 -45z m-100 -78 c0 -1 -24 -25 -52 -52 l-53 -50
50 53 c46 48 55 57 55 49z m-2333 -165 c161 -82 454 -292 693 -498 292 -252
424 -325 525 -292 45 15 89 70 79 100 -3 10 -1 18 5 18 5 0 12 15 14 33 3 22
4 15 5 -21 3 -74 -18 -116 -67 -141 -115 -59 -254 8 -561 274 -213 185 -533
418 -690 503 -41 23 -100 48 -130 57 l-55 15 52 -4 c33 -3 79 -19 130 -44z
m3165 33 c-149 -47 -438 -246 -800 -549 -188 -158 -312 -252 -344 -261 -13 -4
-42 -16 -66 -27 -64 -30 -151 -22 -192 17 -32 31 -51 80 -49 130 1 25 3 23 12
-15 9 -40 11 -42 17 -20 6 23 7 22 13 -13 5 -34 43 -97 53 -89 2 2 21 1 42 -2
52 -9 156 22 222 67 30 20 134 104 230 187 409 353 763 590 880 588 18 0 14
-4 -18 -13z m-3259 -195 c5 -173 26 -263 91 -395 92 -186 244 -317 436 -377
64 -20 96 -23 220 -23 130 1 153 3 226 28 44 15 100 40 122 57 30 21 42 26 42
16 0 -21 -60 -64 -120 -87 -231 -88 -510 -54 -702 84 -164 118 -252 261 -313
508 -26 104 -44 301 -31 335 15 39 24 -8 29 -146z m3254 18 c-12 -288 -119
-539 -289 -677 -81 -66 -224 -137 -313 -156 -92 -19 -239 -19 -328 1 -127 29
-241 93 -222 124 5 8 14 4 27 -10 29 -31 111 -67 196 -86 111 -25 302 -15 401
20 231 82 393 254 465 496 33 113 45 184 50 310 5 119 4 110 12 110 4 0 4 -60
1 -132z m-3107 38 c222 -139 428 -295 645 -485 61 -54 145 -125 188 -160 42
-34 77 -68 77 -75 0 -19 -68 -53 -155 -77 -66 -18 -97 -21 -190 -17 -187 8
-331 72 -462 205 -121 122 -200 312 -218 525 -4 43 -4 91 0 108 8 38 21 35
115 -24z m3060 0 c0 -124 -45 -305 -105 -426 -91 -181 -214 -288 -410 -358
-136 -47 -352 -40 -463 17 -69 35 -70 43 -6 98 32 26 112 96 178 154 159 139
326 272 456 363 127 90 317 206 336 206 10 0 14 -15 14 -54z m347 -103 c-3
-10 -5 -2 -5 17 0 19 2 27 5 18 2 -10 2 -26 0 -35z m-236 -590 c-5 -10 -26
-70 -46 -133 -38 -118 -105 -261 -158 -340 -43 -63 -200 -260 -231 -289 -14
-14 -28 -22 -31 -20 -6 7 147 209 207 271 29 31 58 62 65 70 30 39 110 218 97
218 -3 0 -10 -14 -16 -31 -6 -16 -12 -28 -14 -26 -2 2 9 39 25 82 15 43 30 73
32 67 2 -6 17 24 34 68 16 44 33 80 37 80 5 0 5 -8 -1 -17z m-3307 -177 c15
-38 24 -71 21 -74 -2 -3 -7 1 -9 9 -2 8 -14 40 -25 72 -12 32 -21 61 -21 64 0
14 10 -6 34 -71z m72 -157 c14 -28 24 -53 22 -55 -2 -2 -16 21 -31 51 -15 30
-25 55 -22 55 3 0 16 -23 31 -51z m494 -141 c263 -145 373 -193 557 -243 352
-97 517 -109 773 -55 273 56 503 141 723 269 162 93 194 81 158 -57 -107 -415
-398 -795 -756 -992 -387 -211 -801 -107 -1188 299 -110 116 -199 250 -286
431 -72 151 -106 242 -117 308 -5 33 -2 44 15 61 26 26 40 23 121 -21z m1086
-183 c12 -8 24 -12 27 -8 4 3 17 -2 31 -10 20 -13 31 -14 56 -6 17 6 33 9 35
7 3 -3 -36 -21 -86 -42 l-91 -37 -105 42 c-109 44 -132 60 -46 32 l52 -16 33
26 c38 30 64 33 94 12z m-1351 -15 c10 -11 16 -20 13 -20 -3 0 -13 9 -23 20
-10 11 -16 20 -13 20 3 0 13 -9 23 -20z m20 -40 c-3 -5 -2 -10 4 -10 14 0 70
-49 82 -71 16 -30 2 -23 -51 27 -42 39 -55 64 -34 64 3 0 2 -4 -1 -10z m346
-817 c13 -16 12 -17 -3 -4 -17 13 -22 21 -14 21 2 0 10 -8 17 -17z m1002 -380
c-35 -2 -91 -2 -125 0 -35 2 -7 3 62 3 69 0 97 -1 63 -3z"/>
<path d="M5465 7875 c-71 -46 -140 -91 -153 -100 -22 -16 -22 -17 -20 -253 l3
-237 155 -102 c85 -57 159 -103 165 -103 5 0 73 42 150 93 l140 92 3 73 3 74
-93 -65 c-51 -35 -114 -76 -139 -91 l-46 -26 -99 68 -99 68 -3 166 -2 167 72
47 c40 26 81 47 90 46 9 0 41 -17 70 -36 29 -20 56 -36 61 -36 10 0 117 71
117 78 0 3 -8 11 -17 18 -22 17 -222 144 -225 144 -2 -1 -61 -39 -133 -85z"/>
<path d="M5670 6705 c0 -22 4 -25 34 -25 22 0 36 6 40 16 9 24 -2 34 -40 34
-30 0 -34 -3 -34 -25z"/>
<path d="M6180 6706 c0 -24 4 -26 41 -26 36 0 40 2 37 23 -2 18 -10 23 -40 25
-35 3 -38 1 -38 -22z"/>
<path d="M4977 6693 c-13 -12 -7 -43 8 -43 8 0 15 6 15 13 0 18 -15 38 -23 30z"/>
<path d="M4456 4864 c-18 -17 -16 -33 17 -129 30 -92 143 -310 208 -405 146
-214 394 -440 575 -526 120 -58 239 -85 368 -86 55 0 123 5 150 11 264 62 558
297 777 623 74 109 119 203 171 357 61 181 55 188 -93 100 -223 -133 -441
-218 -717 -278 -177 -39 -283 -47 -408 -31 -117 14 -412 86 -539 130 -104 37
-274 118 -357 172 -32 21 -76 47 -98 58 -35 18 -40 18 -54 4z m175 -130 c121
-73 239 -128 362 -169 54 -18 100 -35 102 -37 6 -6 55 -507 55 -560 0 -26 -3
-48 -6 -48 -25 0 -230 184 -312 280 -136 159 -255 373 -312 563 -12 39 2 35
111 -29z m2069 43 c0 -27 -58 -184 -95 -257 -82 -163 -191 -306 -347 -456
-108 -104 -156 -140 -169 -127 -10 10 36 583 49 594 4 3 57 23 117 43 127 43
260 106 360 170 77 49 85 52 85 33z m-1468 -277 c125 -34 268 -53 393 -52 116
0 153 6 453 70 20 4 22 1 21 -34 0 -22 -12 -163 -27 -314 l-27 -275 -40 -26
c-94 -62 -262 -109 -391 -109 -134 0 -298 46 -389 108 l-40 28 -21 229 c-38
417 -37 395 -20 395 9 0 48 -9 88 -20z"/>
<path d="M7566 6730 c10 -38 32 -87 33 -70 0 8 -8 33 -19 55 -11 22 -17 29
-14 15z"/>
<path d="M3602 6631 c-7 -19 -12 -48 -11 -65 1 -25 4 -20 15 24 16 64 13 90
-4 41z"/>
<path d="M7680 6375 c-19 -23 -9 -24 35 -4 l40 18 -31 0 c-17 1 -37 -6 -44
-14z"/>
<path d="M2375 3515 c14 -27 42 -68 61 -90 40 -45 35 -29 -8 26 -15 20 -28 41
-28 45 0 5 -12 23 -26 39 l-25 30 26 -50z"/>
<path d="M9666 7434 c-20 -19 -20 -35 -3 -59 19 -26 65 -13 73 20 12 47 -36
73 -70 39z"/>
<path d="M10304 7405 c-15 -11 -16 -14 -3 -15 8 0 24 7 35 15 15 11 16 14 3
15 -8 0 -24 -7 -35 -15z"/>
<path d="M9761 7388 c-11 -30 -29 -45 -64 -53 -15 -4 -33 -15 -40 -24 -6 -9
-27 -29 -45 -44 -34 -28 -22 -39 14 -12 28 21 41 18 51 -12 l9 -27 82 83 c45
45 82 87 82 92 0 5 -11 7 -25 3 -14 -4 -32 -1 -40 6 -12 10 -16 8 -24 -12z"/>
<path d="M9630 7356 c0 -8 5 -18 10 -21 6 -3 10 1 10 9 0 8 -4 18 -10 21 -5 3
-10 -1 -10 -9z"/>
<path d="M9955 7290 c-3 -6 1 -7 9 -4 18 7 21 14 7 14 -6 0 -13 -4 -16 -10z"/>
<path d="M9565 7275 c-25 -12 -26 -14 -9 -15 12 0 27 7 34 15 15 18 14 18 -25
0z"/>
<path d="M9503 7233 c15 -2 37 -2 50 0 12 2 0 4 -28 4 -27 0 -38 -2 -22 -4z"/>
<path d="M70 6775 c13 -14 26 -25 28 -25 3 0 -5 11 -18 25 -13 14 -26 25 -28
25 -3 0 5 -11 18 -25z"/>
<path d="M46 6606 c3 -8 12 -17 20 -20 12 -4 12 -2 4 14 -12 23 -32 27 -24 6z"/>
<path d="M709 6506 c13 -7 30 -24 37 -37 10 -18 13 -20 14 -7 0 17 -45 58 -64
58 -6 -1 0 -7 13 -14z"/>
<path d="M10735 4116 c35 -46 167 -168 174 -160 6 6 -132 147 -174 177 l-30
22 30 -39z"/>
<path d="M9324 4112 c-7 -4 -27 -47 -47 -97 -33 -86 -49 -118 -147 -300 -202
-374 -589 -842 -914 -1105 -10 -8 -33 -27 -50 -41 -53 -44 -120 -86 -148 -93
-25 -6 -28 -4 -28 20 0 23 -11 14 -74 -67 -41 -52 -104 -120 -140 -151 -62
-56 -64 -59 -55 -90 5 -18 9 -46 10 -63 1 -26 2 -24 9 12 5 23 16 55 24 72 19
36 90 92 154 121 111 51 188 95 242 138 331 265 677 626 860 897 126 186 275
457 341 618 26 65 77 117 114 117 13 0 27 5 30 10 7 12 -163 14 -181 2z"/>
<path d="M9788 4113 c23 -2 61 -2 85 0 23 2 4 4 -43 4 -47 0 -66 -2 -42 -4z"/>
<path d="M10340 4110 c20 -13 33 -13 25 0 -3 6 -14 10 -23 10 -15 0 -15 -2 -2
-10z"/>
<path d="M7706 2051 c-11 -11 -25 -21 -33 -21 -7 0 -13 -4 -13 -8 0 -17 63
-103 87 -120 13 -9 39 -28 56 -41 l32 -25 -36 40 c-59 66 -64 75 -69 137 -5
59 -5 59 -24 38z"/>
</g>
</svg>
